# xmcd CD database file
#
# Track frame offsets:
#	150
#	13122
#	25652
#	40740
#	53212
#	67657
#	83617
#	97575
#	114375
#	129660
#	145190
#	159402
#	175457
#	186770
#	199837
#	215447
#	230665
#	245027
#	254902
#	270650
#	286897
#	298340
#	311365
#
# Disc length: 4340 seconds
#
# Revision: 0
# Processed by: cddbd v1.5.2PL0 Copyright (c) Steve Scherf et al.
# Submitted via: CDex 1.70beta2
#
DISCID=4b10f217
DTITLE=ChartBreakers - ChartBreakers CGC-539
DYEAR=1900
DGENRE=Country
TTITLE0=Conway Twitty - Tight Fittin' Jeans
TTITLE1=Merle Haggard - Silver Wings
TTITLE2=George Jones - Right Left Hand
TTITLE3=Anne Murray - Walk Right Back
TTITLE4=Ricky Skaggs - Highway 40 Blues
TTITLE5=Ronnie Milsap - Houston Solution
TTITLE6=Ricky Van Shelton - I Meant Every Word He Said
TTITLE7=Randy Travis - I Told You
TTITLE8=Kathy Mattea - Life As We Knew It
TTITLE9=Ricky Van Shelton - Life Turned Her That Way
TTITLE10=Willie Nelson - My Heroes Have Always Been Cowboys
TTITLE11=Oak Ridge Boys - Touch A Hand, Make A Friend
TTITLE12=Crystal Gayle - Somebody Loves You
TTITLE13=Hank Williams Jr and Sr - There's a Tear In My Beer
TTITLE14=Amazing Rhythm Aces - Third Rate Romance
TTITLE15=Willie Nelson - Nothing I Can Do About It Now
TTITLE16=Vince Gill and Reba McEntire - Oklahoma Swing
TTITLE17=George Strait - Right Or Wrong
TTITLE18=Anne Murray - Shadows In The Moonlight
TTITLE19=Larry Gatlin and The Gatlin Brothers - Talkin' To The Moon
TTITLE20=Oak Ridge Boys - Trying To Love Two Women
TTITLE21=George Jones - Still Doin' Time
TTITLE22=Johnny Duncan - Stranger
EXTD=YEAR: 1900
EXTT0=
EXTT1=
EXTT2=
EXTT3=
EXTT4=
EXTT5=
EXTT6=
EXTT7=
EXTT8=
EXTT9=
EXTT10=
EXTT11=
EXTT12=
EXTT13=
EXTT14=
EXTT15=
EXTT16=
EXTT17=
EXTT18=
EXTT19=
EXTT20=
EXTT21=
EXTT22=
PLAYORDER=
